<?xml version="1.0" encoding="UTF-8"?>
<svg width="16px" height="16px" viewBox="0 0 16 16" version="1.1" xmlns="http://www.w3.org/2000/svg" xmlns:xlink="http://www.w3.org/1999/xlink">
    <!-- Generator: Sketch 51 (57462) - http://www.bohemiancoding.com/sketch -->
    <title>错误</title>
    <desc>Created with Sketch.</desc>
    <defs></defs>
    <g id="Page-1" stroke="none" stroke-width="1" fill="none" fill-rule="evenodd">
        <g id="修改密码" transform="translate(-661.000000, -192.000000)" fill="#999999" fill-rule="nonzero">
            <g id="Group" transform="translate(241.000000, 168.000000)">
                <g id="错误" transform="translate(420.000000, 24.000000)">
                    <path d="M8.61350763,8 L15.8640523,0.749455338 C16.0313725,0.582135076 16.0313725,0.303267974 15.8640523,0.135947712 C15.696732,-0.031372549 15.4178649,-0.031372549 15.2505447,0.135947712 L8,7.38649237 L0.749455338,0.135947712 C0.582135076,-0.031372549 0.303267974,-0.031372549 0.135947712,0.135947712 C-0.031372549,0.303267974 -0.031372549,0.582135076 0.135947712,0.749455338 L7.38649237,8 L0.135947712,15.2505447 C-0.031372549,15.4178649 -0.031372549,15.696732 0.135947712,15.8640523 C0.303267974,16.0313725 0.582135076,16.0313725 0.749455338,15.8640523 L8,8.61350763 L15.2505447,15.8640523 C15.4178649,16.0313725 15.696732,16.0313725 15.8640523,15.8640523 C16.0313725,15.696732 16.0313725,15.4178649 15.8640523,15.2505447 L8.61350763,8 Z" id="Shape"></path>
                </g>
            </g>
        </g>
    </g>
</svg>