<?xml version="1.0" encoding="UTF-8"?>
<svg width="14px" height="14px" viewBox="0 0 14 14" version="1.1" xmlns="http://www.w3.org/2000/svg" xmlns:xlink="http://www.w3.org/1999/xlink">
    <!-- Generator: Sketch 51 (57462) - http://www.bohemiancoding.com/sketch -->
    <title>错误 (1)</title>
    <desc>Created with Sketch.</desc>
    <defs></defs>
    <g id="Page-1" stroke="none" stroke-width="1" fill="none" fill-rule="evenodd">
        <g id="忘记密码（手机找回）" transform="translate(-1052.000000, -340.000000)" fill="#D81E06" fill-rule="nonzero">
            <g id="手机找回-copy" transform="translate(734.000000, 206.000000)">
                <g id="错误-(1)" transform="translate(318.000000, 134.000000)">
                    <path d="M13.4434917,4.2731424 C13.0911921,3.44035404 12.5870241,2.6925703 11.9450345,2.05050052 C11.3028845,1.40835046 10.5551007,0.904262665 9.72231239,0.552043359 C8.85990486,0.187302128 7.94403834,0.00236291153 7.0002383,0.00236291153 C6.05635798,0.00236291153 5.14057174,0.187302128 4.27808394,0.552043359 C3.44529559,0.904262665 2.69751185,1.40843073 2.05544206,2.05050052 C1.413292,2.6925703 0.909204211,3.44043431 0.556984905,4.2731424 C0.192163404,5.13546965 0.00722418813,6.05141644 0.00722418813,6.99529675 C0.00722418813,7.9390968 0.192163404,8.85496331 0.556984905,9.71745111 C0.909204211,10.5502395 1.41337227,11.2980232 2.05544206,11.9400127 C2.69751185,12.5821628 3.44529559,13.0863308 4.27808394,13.4384699 C5.14049147,13.8032914 6.05627772,13.9883109 7.0002383,13.9883109 C7.94395807,13.9883109 8.85982459,13.8032914 9.72231239,13.4384699 C10.5551007,13.0863308 11.3028845,12.5821628 11.9450345,11.9400127 C12.5870241,11.2980232 13.0911921,10.5502395 13.4434917,9.71745111 C13.8083132,8.85504358 13.9931721,7.93917707 13.9931721,6.99529675 C13.9931721,6.05141644 13.8081527,5.13546965 13.4434917,4.2731424 Z M7.0002383,13.1902789 C3.58424081,13.1902789 0.805175901,10.4111337 0.805175901,6.99529675 C0.805175901,3.57937953 3.58424081,0.800314625 7.0002383,0.800314625 C10.4161555,0.800314625 13.1951402,3.57937953 13.1951402,6.99529675 C13.1951402,10.4111337 10.4161555,13.1902789 7.0002383,13.1902789 Z M6.98731503,9.67627324 C6.49285948,9.67627324 6.09946231,10.0801054 6.09946231,10.5849156 C6.09946231,11.0786487 6.47006316,11.5050363 6.98731503,11.5050363 C7.48128896,11.5050363 7.8860843,11.1010437 7.8860843,10.5849156 C7.8860843,10.0803462 7.48128896,9.67627324 6.98731503,9.67627324 Z M6.49285948,8.73391803 L7.52664081,8.73391803 L7.99203906,2.77604981 L6.02705989,2.77604981 L6.49285948,8.73391803 Z" id="Shape"></path>
                </g>
            </g>
        </g>
    </g>
</svg>