<?xml version="1.0" encoding="UTF-8"?>
<svg width="186px" height="186px" viewBox="0 0 186 186" version="1.1" xmlns="http://www.w3.org/2000/svg" xmlns:xlink="http://www.w3.org/1999/xlink">
    <!-- Generator: Sketch 51 (57462) - http://www.bohemiancoding.com/sketch -->
    <title>logo</title>
    <desc>Created with Sketch.</desc>
    <defs></defs>
    <g id="Page-1" stroke="none" stroke-width="1" fill="none" fill-rule="evenodd">
        <g id="logo">
            <rect id="Rectangle" fill="#FFFFFF" fill-rule="nonzero" x="-1.42108547e-14" y="2.84217094e-14" width="186" height="186"></rect>
            <g id="chaindiggã€logo" transform="translate(17.000000, 8.000000)" fill="#00A1E9">
                <path d="M82.85,5.65 C85.6854792,5.64853406 88.5191788,5.79205477 91.34,6.08 L91.57,32.2 C64.3073965,27.9315904 37.9644232,44.034049 29.3319382,70.2437623 C20.6994531,96.4534756 32.3173749,125.058813 56.7805078,137.826898 C81.2436406,150.594983 111.354246,143.769089 127.92,121.7 L150.92,133.97 C128.96603,166.407517 87.1797897,178.857703 51.0524432,163.72548 C14.9250968,148.593257 -5.5144209,110.079323 2.20275777,71.678613 C9.91993643,33.2779034 43.6515262,5.65043786 82.82,5.65 L82.85,5.65 Z" id="Shape"></path>
                <path d="M83.02,46.01 C88.4149518,46.0049414 93.7598953,47.0440473 98.76,49.07 L99.12,0.01 C106.59,-0.32 125,8.57 125,8.57 L125,87.97 C124.994472,111.133136 106.216465,129.908152 83.0533278,129.909989 C59.890191,129.911826 41.1092056,111.139788 41.1000045,87.9766532 C41.0908034,64.8135181 59.856869,46.0265655 83.02,46.01 Z M83.67,72.71 C75.2129227,72.7265609 68.3689779,79.5928745 68.380013,88.0499608 C68.3910482,96.5070472 75.2528887,103.355477 83.7099804,103.349967 C92.1670722,103.344458 99.0199838,96.4870936 99.02,88.03 C99.0200035,83.9634158 97.4031915,80.0636798 94.5258071,77.1900469 C91.6484227,74.316414 87.7465808,72.7046911 83.68,72.71 L83.67,72.71 Z" id="Shape"></path>
                <path d="M132.66,21.87 L132.87,51.69 L151.32,41.26 C146.3156,33.72796 139.994546,27.1596192 132.66,21.87 Z" id="Shape"></path>
            </g>
        </g>
    </g>
</svg>