<?xml version="1.0" encoding="UTF-8"?>
<svg width="192px" height="24px" viewBox="0 0 192 24" version="1.1" xmlns="http://www.w3.org/2000/svg" xmlns:xlink="http://www.w3.org/1999/xlink">
    <!-- Generator: Sketch 51 (57462) - http://www.bohemiancoding.com/sketch -->
    <title>chaindigg、logo横版</title>
    <desc>Created with Sketch.</desc>
    <defs></defs>
    <g id="Page-1" stroke="none" stroke-width="1" fill="none" fill-rule="evenodd">
        <g id="登陆" transform="translate(-120.000000, -48.000000)" fill="#FFFFFF">
            <g id="chaindigg、logo横版" transform="translate(120.000000, 48.000000)">
                <path d="M12.5809489,0.0076747035 C13.0149532,0.00826711978 13.4486415,0.0300405737 13.8803132,0.0729096833 L13.9165184,3.88339997 C9.74307663,3.25463873 5.70696551,5.60380118 4.38415627,9.431579 C3.06134703,13.2593568 4.84172895,17.4375379 8.58900708,19.2994775 C12.3362852,21.1614171 16.9459741,20.1583209 19.4760275,16.9303959 L23,18.7224392 C19.6425919,23.4571123 13.2500548,25.2753809 7.7225792,23.0678898 C2.19510361,20.8603988 -0.932623937,15.2400512 0.247673842,9.63591219 C1.42797162,4.03177321 6.58858869,-0.000185263355 12.5809489,0 L12.5809489,0.0076747035 Z" id="Shape"></path>
                <path d="M13.0075,6.72238852 C13.7785719,6.72049305 14.5426826,6.87187524 15.2575,7.16814843 L15.31,0.00140495278 C16.375,-0.0485508999 19,1.25030127 19,1.25030127 L19,12.8515874 C19,16.2472619 16.3137085,19 13,19 C9.6862915,19 7,16.2472619 7,12.8515874 C7,9.45591283 9.6862915,6.70317473 13,6.70317473 L13.0075,6.72238852 Z M13.10125,10.6227878 C12.2169944,10.6227878 11.4198083,11.1686261 11.0814184,12.0057793 C10.7430284,12.8429324 10.9300747,13.8065374 11.5553378,14.4472667 C12.1806009,15.0879959 13.120946,15.2796689 13.9378917,14.9329087 C14.7548373,14.5861485 15.2875,13.7692437 15.2875,12.8631156 C15.2915174,12.2642815 15.0614071,11.6887253 14.6485312,11.2649147 C14.2356553,10.8411042 13.6743853,10.604321 13.09,10.6074168 L13.10125,10.6227878 Z" id="Shape"></path>
                <path d="M21,4 L21.0451977,9 L25,7.23633157 C23.9257771,5.97930692 22.5709241,4.88311852 21,4 Z" id="Shape"></path>
                <path d="M41.0153802,14.9354167 L45,14.9354167 L45,16.2005952 C45,17.5470238 44.6144768,18.5168651 43.8434304,19.110119 C43.072384,19.703373 41.8286757,20 40.1123053,20 L33.6402687,20 C31.6677631,20 30.2339337,19.6556548 29.3387805,18.9669643 C28.4436274,18.2782738 27.9973711,17.1059524 28.0000116,15.45 L28.0000116,11.6699405 C28.0000116,9.92886905 28.4357057,8.71656746 29.3070937,8.03303571 C30.1784817,7.34950397 31.6307951,7.00515873 33.6640339,7 L38.456668,7 C40.9150385,7 42.5944409,7.27599206 43.4948752,7.82797619 C44.3953095,8.37996032 44.8442064,9.4890873 44.8415658,11.1553571 L44.8415658,11.789881 L40.8767503,11.789881 L40.8767503,11.4029762 C40.8970374,11.0526823 40.7230859,10.7187534 40.421252,10.5285714 C39.9702157,10.2996638 39.4624231,10.1991186 38.9557357,10.2383929 L34.6740518,10.2383929 C33.7260873,10.2383929 33.0659448,10.4228175 32.6936245,10.7916667 C32.3213041,11.1605159 32.1325034,11.8401786 32.1272222,12.8306548 L32.1272222,14.0610119 C32.1272222,15.1443452 32.2909376,15.860119 32.6183682,16.2083333 C32.9457989,16.5565476 33.5914182,16.7280754 34.5552262,16.7229167 L38.813145,16.7229167 C39.739985,16.7229167 40.338074,16.6107143 40.5994904,16.3901786 C40.8609068,16.1696429 40.9955759,15.6705357 41.0391453,14.9199405 L41.0153802,14.9354167 Z" id="Shape" fill-rule="nonzero"></path>
                <polygon id="Shape" fill-rule="nonzero" points="48 7 52.1519786 7 52.1519786 11.6231003 60.8480214 11.6231003 60.8480214 7 65 7 65 20 60.8480214 20 60.8480214 15.0528875 52.1519786 15.0528875 52.1519786 20 48 20"></polygon>
                <path d="M69,20 L75.9795918,7 L81.0204082,7 L88,20 L83.7308163,20 L82.49,17.6963526 L74.5487755,17.6963526 L73.3234694,20 L69,20 Z M76.0377551,14.8908815 L81.0126531,14.8908815 L78.5116327,10.1057751 L76.0377551,14.8908815 Z" id="Shape" fill-rule="nonzero"></path>
                <polygon id="Shape" fill-rule="nonzero" points="92 7 96 7 96 20 92 20"></polygon>
                <polygon id="Shape" fill-rule="nonzero" points="100 7 105.905943 7 113.167784 16.4832827 113.167784 16.4832827 113.167784 7 117 7 117 20 111.082663 20 103.820822 10.5167173 103.820822 10.5167173 103.820822 20 100 20"></polygon>
                <path d="M123,19.9997774 L123,7 L134.755566,7 C136.761169,7 138.135999,7.35825121 138.880055,8.07475363 C139.62411,8.79125605 139.997425,9.95030409 140,11.5518977 L140,15.4320745 C140,17.0125945 139.62411,18.1716425 138.872331,18.9092186 C138.120551,19.6467946 136.792064,20.0103142 134.88687,19.9997774 L123,19.9997774 Z M126.885052,16.6727827 L133.774648,16.6727827 C134.670604,16.6727827 135.282069,16.5002426 135.609041,16.1551624 C135.936014,15.8100822 136.104649,15.2134358 136.114948,14.3652234 L136.114948,12.5910897 C136.114948,11.6638512 135.934727,11.0382287 135.574284,10.7142221 C135.215129,10.3902155 134.570195,10.2242609 133.643344,10.2242609 L126.885052,10.2242609 L126.885052,16.6727827 Z" id="Shape" fill-rule="nonzero"></path>
                <polygon id="Shape" fill-rule="nonzero" points="145 7 149 7 149 20 145 20"></polygon>
                <path d="M169.861338,11.5215734 L165.939178,11.5215734 C165.992341,11.1033008 165.846363,10.6842939 165.543,10.3844148 C165.278882,10.1678131 164.777056,10.0595123 164.037524,10.0595123 L159.679569,10.0595123 C158.586118,10.0595123 157.888845,10.2529066 157.583789,10.6396953 C157.278732,11.026484 157.128184,11.7265714 157.128184,12.763165 L157.128184,14.0975859 C157.128184,15.3069451 157.294579,16.0805224 157.627368,16.4183179 C157.964119,16.7625598 158.645545,16.9366147 159.667684,16.9482183 L163.914709,16.9482183 C164.486225,16.9955848 165.059904,16.885712 165.570732,16.6310516 C165.890181,16.3927417 166.06458,16.0129199 166.03426,15.6215332 L166.03426,15.2618198 L161.030535,15.2618198 L161.030535,12.6161853 L170,12.6161853 L170,16.2597345 C170,17.7192171 169.619669,18.7081067 168.859008,19.2264035 C168.098347,19.7447003 166.553253,20.0025594 164.223728,19.9999809 L158.641583,19.9999809 C156.668618,19.9999809 155.234454,19.6557389 154.339093,18.9672551 C153.443731,18.2787713 152.99737,17.1068017 153.000012,15.4513462 L153.000012,11.672421 C153.000012,9.97312951 153.433166,8.76892748 154.299475,8.05981494 C155.165783,7.3507024 156.618435,6.99743542 158.65743,7.00001401 L164.663485,7.00001401 C166.544009,7.00001401 167.881769,7.28752692 168.676766,7.86255272 C169.471763,8.43757853 169.867941,9.48061862 169.8653,10.991673 L169.8653,11.5138377 L169.861338,11.5215734 Z" id="Shape" fill-rule="nonzero"></path>
                <path d="M191.873134,11.5215734 L187.94823,11.5215734 C188.001431,11.1033008 187.85535,10.6842939 187.551775,10.3844148 C187.287472,10.1678131 186.785296,10.0595123 186.045247,10.0595123 L181.684242,10.0595123 C180.590026,10.0595123 179.892266,10.2529066 179.586995,10.6396953 C179.281725,11.026484 179.131072,11.7265714 179.131072,12.763165 L179.131072,14.0975859 C179.131072,15.3069451 179.297583,16.0805224 179.630605,16.4183179 C179.967592,16.7625598 180.649495,16.9366147 181.672349,16.9482183 L185.922346,16.9482183 C186.494261,16.9955848 187.068342,16.885712 187.579527,16.6310516 C187.8992,16.3927417 188.07372,16.0129199 188.04338,15.6215332 L188.04338,15.2618198 L183.040118,15.2618198 L183.040118,12.6161853 L192,12.6161853 L192,16.2597345 C192,17.7192171 191.619403,18.7081067 190.85821,19.2264035 C190.097016,19.7447003 188.550842,20.0025594 186.219687,19.9999809 L180.64553,19.9999809 C178.671185,19.9999809 177.236018,19.6557389 176.340029,18.9672551 C175.444041,18.2787713 174.997369,17.1068017 175.000012,15.4513462 L175.000012,11.672421 C175.000012,9.97312951 175.433469,8.76892748 176.300384,8.05981494 C177.167299,7.3507024 178.620967,6.99743542 180.661388,7.00001401 L186.683539,7.00001401 C188.565379,7.00001401 189.904075,7.28752692 190.699628,7.86255272 C191.495181,8.43757853 191.891636,9.48061862 191.888993,10.991673 L191.888993,11.5138377 L191.873134,11.5215734 Z" id="Shape" fill-rule="nonzero"></path>
            </g>
        </g>
    </g>
</svg>