<?xml version="1.0" encoding="UTF-8"?>
<svg width="34px" height="34px" viewBox="0 0 34 34" version="1.1" xmlns="http://www.w3.org/2000/svg" xmlns:xlink="http://www.w3.org/1999/xlink">
    <!-- Generator: Sketch 51 (57462) - http://www.bohemiancoding.com/sketch -->
    <title>错误2</title>
    <desc>Created with Sketch.</desc>
    <defs></defs>
    <g id="Page-1" stroke="none" stroke-width="1" fill="none" fill-rule="evenodd">
        <g id="修改密码" transform="translate(-1151.000000, -183.000000)" fill-rule="nonzero">
            <g id="Group-Copy" transform="translate(740.000000, 168.000000)">
                <g id="错误2" transform="translate(411.000000, 15.000000)">
                    <circle id="Oval-2" fill="#00A0E9" cx="17" cy="17" r="17"></circle>
                    <path d="M17.6135076,17 L24.8640523,9.74945534 C25.0313725,9.58213508 25.0313725,9.30326797 24.8640523,9.13594771 C24.696732,8.96862745 24.4178649,8.96862745 24.2505447,9.13594771 L17,16.3864924 L9.74945534,9.13594771 C9.58213508,8.96862745 9.30326797,8.96862745 9.13594771,9.13594771 C8.96862745,9.30326797 8.96862745,9.58213508 9.13594771,9.74945534 L16.3864924,17 L9.13594771,24.2505447 C8.96862745,24.4178649 8.96862745,24.696732 9.13594771,24.8640523 C9.30326797,25.0313725 9.58213508,25.0313725 9.74945534,24.8640523 L17,17.6135076 L24.2505447,24.8640523 C24.4178649,25.0313725 24.696732,25.0313725 24.8640523,24.8640523 C25.0313725,24.696732 25.0313725,24.4178649 24.8640523,24.2505447 L17.6135076,17 Z" id="Shape" fill="#FFFFFF"></path>
                </g>
            </g>
        </g>
    </g>
</svg>